<svg id="Capa_1" data-name="Capa 1" xmlns="http://www.w3.org/2000/svg" width="475.38mm" height="119.16mm" viewBox="0 0 1347.53 337.78">
  <defs>
    <style>
      .cls-1 {
        font-size: 73.08px;
        font-family: HelveticaNeue-Light, HelveticaNeue Light;
      }

      .cls-1, .cls-11 {
        fill: #fff;
      }

      .cls-2 {
        letter-spacing: -0.01em;
      }

      .cls-3 {
        letter-spacing: 0em;
      }

      .cls-4 {
        letter-spacing: -0.01em;
      }

      .cls-5 {
        letter-spacing: -0.01em;
      }

      .cls-6 {
        letter-spacing: 0em;
      }

      .cls-7 {
        letter-spacing: 0em;
      }

      .cls-8 {
        letter-spacing: -0.01em;
      }

      .cls-9 {
        letter-spacing: 0em;
      }

      .cls-10 {
        letter-spacing: 0.01em;
      }

      .cls-12 {
        fill: none;
        stroke: #fff;
        stroke-miterlimit: 10;
        stroke-width: 2px;
      }
    </style>
  </defs>
  <title>ADDA logos blanc</title>
  <text class="cls-1" transform="translate(200.74 168.75)"><tspan class="cls-2">A</tspan><tspan x="43.85" y="0">d</tspan><tspan class="cls-3" x="85.07" y="0">v</tspan><tspan x="119.93" y="0">an</tspan><tspan class="cls-4" x="195.71" y="0">c</tspan><tspan x="228.01" y="0">ed Di</tspan><tspan class="cls-5" x="387.11" y="0">g</tspan><tspan x="427.52" y="0">ital</tspan><tspan class="cls-6" x="-142.87" y="87.7">D</tspan><tspan x="-93.91" y="87.7">esi</tspan><tspan class="cls-5" x="-11.26" y="87.7">g</tspan><tspan x="29.16" y="87.7">n &amp; </tspan><tspan class="cls-7" x="144.92" y="87.7">A</tspan><tspan class="cls-8" x="189.42" y="87.7">r</tspan><tspan class="cls-9" x="212.59" y="87.7">chi</tspan><tspan class="cls-4" x="302.99" y="87.7">t</tspan><tspan x="326.74" y="87.7">e</tspan><tspan class="cls-10" x="363.36" y="87.7">c</tspan><tspan class="cls-9" x="397.05" y="87.7">tu</tspan><tspan class="cls-8" x="461.5" y="87.7">r</tspan><tspan x="484.67" y="87.7">e</tspan></text>
  <path class="cls-11" d="M1218.58,128.64h-15.8l-13.54,33.7a131,131,0,0,0,1.22-18.31q0-37-17.14-55.18t-51-19H1071v59.22c-2.42-.21-4.91-.36-7.48-.42h-51.33V262.47L959.68,128.64H943.89L884.25,277h15l16.61-42.89,5.79-15.3h-.17l5.38-13.76L951.08,141l47.5,125.52h0L1002.7,277h60.79q33.87-.84,51-19,13.5-14.31,16.35-40.3,27.56-2.7,42.46-18.5c.69-.74,1.37-1.5,2-2.29L1143.14,277h15l16.6-42.84,5.81-15.35h-.17l5.36-13.72L1210,141l47.51,125.52h0L1261.6,277h15.17Zm-101.1,77.49c-.75,0-1.49,0-2.25,0H1085.1V144.49A43.63,43.63,0,0,1,1103,155q7.49,7.49,11,19.33t3.53,28.47C1117.52,204,1117.5,205,1117.48,206.13ZM1114,231.3q-3.54,11.83-11,19.32a44,44,0,0,1-19,10.91q-11.54,3.44-27.53,3.43h-30.14V140.69h30.14a122.16,122.16,0,0,1,14.54.82v76.71h45.68A80.54,80.54,0,0,1,1114,231.3Zm58.81-58.8q-3.54,11.83-11,19.32a44,44,0,0,1-19,10.91,75.7,75.7,0,0,1-11.15,2.36c0-.75,0-1.5,0-2.26q0-37-17.15-55.18-11.16-11.82-29.41-16.3V81.89h30.13q16,0,27.54,3.43a44.09,44.09,0,0,1,19,10.91,44.92,44.92,0,0,1,11,19.33q3.53,11.84,3.53,28.47T1172.8,172.5Z"/>
  <line class="cls-12" x1="800.21" y1="34.8" x2="800.21" y2="312.05"/>
</svg>
